HIERARCHY
ROOT Hips
{
	OFFSET 0.000000 83.214638 0.000000
	CHANNELS 6 Xposition Yposition Zposition Xrotation Yrotation Zrotation
	JOINT Pelvis
	{
		OFFSET 0.000000 0.000000 0.000000
		CHANNELS 3 Xrotation Yrotation Zrotation
		JOINT LeftUpLeg
		{
			OFFSET 8.479700 -4.795502 -0.379100
			CHANNELS 3 Xrotation Yrotation Zrotation
			JOINT LeftLeg
			{
				OFFSET 0.024144 -32.555107 0.112900
				CHANNELS 3 Xrotation Yrotation Zrotation
				JOINT LeftFoot
				{
					OFFSET -0.024144 -32.638630 -3.012600
					CHANNELS 3 Xrotation Yrotation Zrotation
					JOINT LeftToeBase
					{
						OFFSET 0.970200 -13.225400 11.864200
						CHANNELS 3 Xrotation Yrotation Zrotation
						End Site
						{
							OFFSET 0.000000 12.319262 0.000000
						}
					}
					JOINT LFootTongue
					{
						OFFSET 1.142400 -1.059800 6.665200
						CHANNELS 3 Xrotation Yrotation Zrotation
						End Site
						{
							OFFSET 0.000000 12.319262 0.000000
						}
					}
				}
				JOINT LeftPantLeg
				{
					OFFSET 0.918482 -16.533964 -2.284700
					CHANNELS 3 Xrotation Yrotation Zrotation
					End Site
					{
						OFFSET 0.350399 24.744368 0.000000
					}
				}
			}
		}
		JOINT RightUpLeg
		{
			OFFSET -8.479700 -4.795502 -0.379100
			CHANNELS 3 Xrotation Yrotation Zrotation
			JOINT RightLeg
			{
				OFFSET -0.023144 -32.555092 0.112900
				CHANNELS 3 Xrotation Yrotation Zrotation
				JOINT RightFoot
				{
					OFFSET 0.023144 -32.638641 -3.012700
					CHANNELS 3 Xrotation Yrotation Zrotation
					JOINT RightToeBase
					{
						OFFSET -0.970200 -13.225400 11.864200
						CHANNELS 3 Xrotation Yrotation Zrotation
						End Site
						{
							OFFSET 0.000000 12.319244 0.000000
						}
					}
					JOINT RFootTongue
					{
						OFFSET -1.142200 -1.059800 6.665200
						CHANNELS 3 Xrotation Yrotation Zrotation
						End Site
						{
							OFFSET 0.000000 12.319243 0.000000
						}
					}
				}
				JOINT RightPantLeg
				{
					OFFSET -0.919482 -16.533978 -2.284800
					CHANNELS 3 Xrotation Yrotation Zrotation
					End Site
					{
						OFFSET -0.350400 24.744419 0.000000
					}
				}
			}
		}
	}
	JOINT Spine
	{
		OFFSET 0.000000 7.722000 1.166200
		CHANNELS 3 Xrotation Yrotation Zrotation
		JOINT Spine1
		{
			OFFSET 0.000000 12.024101 0.248800
			CHANNELS 3 Xrotation Yrotation Zrotation
			JOINT Spine2
			{
				OFFSET 0.000000 11.502998 -0.491200
				CHANNELS 3 Xrotation Yrotation Zrotation
				JOINT Neck
				{
					OFFSET 0.000000 18.430702 -3.123100
					CHANNELS 3 Xrotation Yrotation Zrotation
					JOINT Head
					{
						OFFSET 0.000000 9.051102 1.034000
						CHANNELS 3 Xrotation Yrotation Zrotation
						JOINT HairB
						{
							OFFSET 0.208400 24.786102 24.822300
							CHANNELS 3 Xrotation Yrotation Zrotation
							End Site
							{
								OFFSET 0.000000 32.263779 0.000000
							}
						}
						JOINT HairA
						{
							OFFSET -7.081100 24.428299 23.196600
							CHANNELS 3 Xrotation Yrotation Zrotation
							End Site
							{
								OFFSET 0.000000 32.263779 0.000000
							}
						}
						JOINT Hat
						{
							OFFSET 16.728800 15.048294 -15.439601
							CHANNELS 3 Xrotation Yrotation Zrotation
							End Site
							{
								OFFSET 0.000000 32.263779 0.000000
							}
						}
					}
				}
				JOINT LeftShoulder
				{
					OFFSET 6.197800 13.665199 -4.064700
					CHANNELS 3 Xrotation Yrotation Zrotation
					JOINT LeftArm
					{
						OFFSET 7.778100 -0.187103 -1.709300
						CHANNELS 3 Xrotation Yrotation Zrotation
						JOINT LeftForeArm
						{
							OFFSET 22.049376 0.000000 0.000000
							CHANNELS 3 Xrotation Yrotation Zrotation
							JOINT LeftHand
							{
								OFFSET 23.009392 0.000000 0.000000
								CHANNELS 3 Xrotation Yrotation Zrotation
								JOINT LeftHandThumb1
								{
									OFFSET 3.507191 -2.063065 3.133727
									CHANNELS 3 Xrotation Yrotation Zrotation
									JOINT LeftHandThumb2
									{
										OFFSET 3.101337 -1.790558 1.790558
										CHANNELS 3 Xrotation Yrotation Zrotation
										JOINT LeftHandThumb3
										{
											OFFSET 3.058640 -1.765907 1.765906
											CHANNELS 3 Xrotation Yrotation Zrotation
											End Site
											{
												OFFSET -0.415260 3.926476 -0.049563
											}
										}
									}
								}
								JOINT LeftHandIndex1
								{
									OFFSET 11.334419 -0.901459 3.706815
									CHANNELS 3 Xrotation Yrotation Zrotation
									JOINT LeftHandIndex2
									{
										OFFSET 3.283112 0.000000 0.000000
										CHANNELS 3 Xrotation Yrotation Zrotation
										JOINT LeftHandIndex3
										{
											OFFSET 3.323853 0.000000 0.000000
											CHANNELS 3 Xrotation Yrotation Zrotation
											End Site
											{
												OFFSET -1.135597 3.097809 0.402452
											}
										}
									}
								}
								JOINT LeftHandMiddle1
								{
									OFFSET 11.335861 0.000000 0.000000
									CHANNELS 3 Xrotation Yrotation Zrotation
									JOINT LeftHandMiddle2
									{
										OFFSET 3.410492 0.000000 0.000000
										CHANNELS 3 Xrotation Yrotation Zrotation
										JOINT LeftHandMiddle3
										{
											OFFSET 3.312172 0.000000 0.000000
											CHANNELS 3 Xrotation Yrotation Zrotation
											End Site
											{
												OFFSET -1.150200 3.080154 0.400270
											}
										}
									}
								}
								JOINT LeftHandRing1
								{
									OFFSET 11.514786 -0.013176 -3.003090
									CHANNELS 3 Xrotation Yrotation Zrotation
									JOINT LeftHandRing2
									{
										OFFSET 3.053307 0.000000 0.000000
										CHANNELS 3 Xrotation Yrotation Zrotation
										JOINT LeftHandRing3
										{
											OFFSET 3.295807 0.000000 0.000000
											CHANNELS 3 Xrotation Yrotation Zrotation
											End Site
											{
												OFFSET -1.281006 3.013344 0.375733
											}
										}
									}
								}
								JOINT LeftHandPinky1
								{
									OFFSET 10.518692 -0.960396 -5.730441
									CHANNELS 3 Xrotation Yrotation Zrotation
									JOINT LeftHandPinky2
									{
										OFFSET 2.861649 0.000000 0.000000
										CHANNELS 3 Xrotation Yrotation Zrotation
										JOINT LeftHandPinky3
										{
											OFFSET 2.863380 0.000000 0.000000
											CHANNELS 3 Xrotation Yrotation Zrotation
											End Site
											{
												OFFSET -0.843597 2.711159 0.369971
											}
										}
									}
								}
							}
							JOINT LSleeve
							{
								OFFSET 6.676277 -0.344902 -1.011730
								CHANNELS 3 Xrotation Yrotation Zrotation
								End Site
								{
									OFFSET 0.000000 14.885353 0.000000
								}
							}
						}
					}
				}
				JOINT RightShoulder
				{
					OFFSET -6.197800 13.665199 -4.064700
					CHANNELS 3 Xrotation Yrotation Zrotation
					JOINT RightArm
					{
						OFFSET -7.778100 -0.187103 -1.709300
						CHANNELS 3 Xrotation Yrotation Zrotation
						JOINT RightForeArm
						{
							OFFSET -22.049376 0.000000 0.000000
							CHANNELS 3 Xrotation Yrotation Zrotation
							JOINT RightHand
							{
								OFFSET -23.009392 0.000000 0.000000
								CHANNELS 3 Xrotation Yrotation Zrotation
								JOINT RightHandThumb1
								{
									OFFSET -3.507191 -2.063065 3.133727
									CHANNELS 3 Xrotation Yrotation Zrotation
									JOINT RightHandThumb2
									{
										OFFSET -3.101337 -1.790558 1.790558
										CHANNELS 3 Xrotation Yrotation Zrotation
										JOINT RightHandThumb3
										{
											OFFSET -3.058640 -1.765907 1.765906
											CHANNELS 3 Xrotation Yrotation Zrotation
											End Site
											{
												OFFSET 0.415260 3.926476 -0.049563
											}
										}
									}
								}
								JOINT RightHandIndex1
								{
									OFFSET -11.334419 -0.901459 3.706815
									CHANNELS 3 Xrotation Yrotation Zrotation
									JOINT RightHandIndex2
									{
										OFFSET -3.283112 0.000000 0.000000
										CHANNELS 3 Xrotation Yrotation Zrotation
										JOINT RightHandIndex3
										{
											OFFSET -3.323853 0.000000 0.000000
											CHANNELS 3 Xrotation Yrotation Zrotation
											End Site
											{
												OFFSET 1.135597 3.097809 0.402452
											}
										}
									}
								}
								JOINT RightHandMiddle1
								{
									OFFSET -11.335861 0.000000 0.000000
									CHANNELS 3 Xrotation Yrotation Zrotation
									JOINT RightHandMiddle2
									{
										OFFSET -3.410492 0.000000 0.000000
										CHANNELS 3 Xrotation Yrotation Zrotation
										JOINT RightHandMiddle3
										{
											OFFSET -3.312172 0.000000 0.000000
											CHANNELS 3 Xrotation Yrotation Zrotation
											End Site
											{
												OFFSET 1.150200 3.080154 0.400270
											}
										}
									}
								}
								JOINT RightHandRing1
								{
									OFFSET -11.514786 -0.013176 -3.003090
									CHANNELS 3 Xrotation Yrotation Zrotation
									JOINT RightHandRing2
									{
										OFFSET -3.053307 0.000000 0.000000
										CHANNELS 3 Xrotation Yrotation Zrotation
										JOINT RightHandRing3
										{
											OFFSET -3.295807 0.000000 0.000000
											CHANNELS 3 Xrotation Yrotation Zrotation
											End Site
											{
												OFFSET 1.281006 3.013344 0.375733
											}
										}
									}
								}
								JOINT RightHandPinky1
								{
									OFFSET -10.518692 -0.960396 -5.730441
									CHANNELS 3 Xrotation Yrotation Zrotation
									JOINT RightHandPinky2
									{
										OFFSET -2.861649 0.000000 0.000000
										CHANNELS 3 Xrotation Yrotation Zrotation
										JOINT RightHandPinky3
										{
											OFFSET -2.863380 0.000000 0.000000
											CHANNELS 3 Xrotation Yrotation Zrotation
											End Site
											{
												OFFSET 0.843597 2.711159 0.369971
											}
										}
									}
								}
							}
							JOINT RSleeve
							{
								OFFSET -6.676277 -0.344902 -1.011730
								CHANNELS 3 Xrotation Yrotation Zrotation
								End Site
								{
									OFFSET 0.000000 14.885353 0.000000
								}
							}
						}
					}
				}
				JOINT Backpack
				{
					OFFSET 0.000000 -2.471497 36.677502
					CHANNELS 3 Xrotation Yrotation Zrotation
					End Site
					{
						OFFSET 0.000000 20.427315 0.000000
					}
				}
				JOINT Hood
				{
					OFFSET 0.000000 18.754097 -10.431000
					CHANNELS 3 Xrotation Yrotation Zrotation
					JOINT Hood1
					{
						OFFSET 0.000000 -5.011002 -7.685901
						CHANNELS 3 Xrotation Yrotation Zrotation
						End Site
						{
							OFFSET 0.000000 9.175140 0.000000
						}
					}
				}
				JOINT LHoodieString
				{
					OFFSET 5.250500 16.397697 3.089900
					CHANNELS 3 Xrotation Yrotation Zrotation
					JOINT LHoodieString1
					{
						OFFSET 0.257700 -6.364304 3.694600
						CHANNELS 3 Xrotation Yrotation Zrotation
						JOINT LHoodieString2
						{
							OFFSET 0.000000 -9.643799 2.679100
							CHANNELS 3 Xrotation Yrotation Zrotation
							End Site
							{
								OFFSET 0.000000 10.009018 0.000000
							}
						}
					}
				}
				JOINT RHoodieString
				{
					OFFSET -5.250500 16.397697 3.089900
					CHANNELS 3 Xrotation Yrotation Zrotation
					JOINT RHoodieString1
					{
						OFFSET -0.257700 -6.364304 3.694600
						CHANNELS 3 Xrotation Yrotation Zrotation
						JOINT RHoodieString2
						{
							OFFSET 0.000000 -9.643799 2.679100
							CHANNELS 3 Xrotation Yrotation Zrotation
							End Site
							{
								OFFSET 0.000000 10.009018 0.000000
							}
						}
					}
				}
			}
			JOINT LBackpack_Strap
			{
				OFFSET 15.223200 -7.719803 -6.610900
				CHANNELS 3 Xrotation Yrotation Zrotation
				End Site
				{
					OFFSET 0.000000 16.040596 0.000000
				}
			}
			JOINT RBackpack_Strap
			{
				OFFSET -15.223000 -7.719803 -6.610900
				CHANNELS 3 Xrotation Yrotation Zrotation
				End Site
				{
					OFFSET 0.000000 16.040596 0.000000
				}
			}
		}
	}
	JOINT BoyFacialAnim_Joint
	{
		OFFSET 1.000000 -82.208099 -1.550900
		CHANNELS 3 Xrotation Yrotation Zrotation
		End Site
		{
			OFFSET 0.000000 30.012791 0.000000
		}
	}
}
MOTION
Frames: 4
Frame Time: 0.033333
1.484587 149.087509 -2.267509 12.750204 -3.973186 -0.142220 -0.000001 -0.000000 0.000000 -36.556996 5.241538 13.705975 34.768135 3.689077 2.860880 -9.035078 1.004567 -7.930047 -0.000000 0.000001 0.000000 -0.000000 0.000001 0.000000 0.000002 -0.000001 0.000002 -39.584255 -4.619488 -11.909762 31.429921 -5.452539 -0.378044 -0.689041 -0.662287 11.627416 0.000000 0.000000 -0.000000 0.000000 0.000000 -0.000000 0.000000 0.000000 -0.000001 7.461930 0.744740 -0.619398 14.646746 1.320355 -1.132105 14.646314 1.331041 -1.126856 -15.576161 -0.187104 1.590019 -8.196170 1.588188 1.970853 0.000001 0.000000 0.000000 0.000001 0.000000 0.000000 0.000001 0.000000 0.000000 0.854865 -6.388057 2.030518 -18.101396 10.477011 -65.142957 -0.000007 -46.274050 -0.000004 -9.768259 -5.150628 -21.066539 11.976883 -7.237090 -2.819925 6.920575 49.797236 3.206680 -0.000001 -0.000000 -0.000000 0.267414 -1.903902 15.988867 6.680599 6.878292 -88.325418 -0.000003 -0.000001 -0.000004 0.267944 -1.905756 16.004868 6.682535 6.878338 -88.341619 -0.000000 0.000000 0.000002 0.267410 -1.903902 15.988850 6.680590 6.878298 -88.325411 0.000001 -0.000001 -0.000000 -0.866505 1.988668 16.500125 6.683566 2.792167 -88.360504 0.000001 0.000000 0.000002 0.000001 0.000001 0.000000 1.031846 -0.689343 6.178873 13.257792 22.679264 35.487617 0.000000 56.057248 -0.000017 -7.811751 14.996483 10.067099 21.604300 8.614342 2.270317 26.034407 -44.272675 -4.791416 0.000001 0.000002 -0.000001 0.428465 2.407385 -20.180397 5.098853 -6.698765 74.527582 -0.000000 0.000003 0.000006 0.428461 2.407384 -20.180392 5.098855 -6.698760 74.527575 0.000003 -0.000001 0.000003 0.428455 2.407373 -20.180415 5.098835 -6.698748 74.527575 0.000001 -0.000001 -0.000003 0.428458 2.407370 -20.180402 5.098854 -6.698767 74.527575 -0.000002 0.000001 -0.000005 -0.000003 0.000001 0.000000 -0.000001 -0.000000 0.000000 -0.000001 -0.000000 0.000000 -0.000001 -0.000000 0.000000 -0.000001 -0.000000 0.000000 -0.000001 -0.000000 0.000000 0.000001 -0.000000 0.000000 -0.000001 -0.000000 0.000000 -0.000001 -0.000000 0.000000 0.000001 -0.000000 0.000000 0.000004 -0.000000 -0.000000 0.000004 -0.000000 -0.000000 -0.000001 -0.000000 0.000000 
1.488102 149.092087 -2.220467 12.671246 -4.004907 -0.151747 0.000000 -0.000000 -0.000000 -36.349847 5.291593 13.727383 34.700452 3.621715 2.892065 -9.297615 1.044019 -8.079087 -0.000000 0.000000 -0.000000 -0.000000 0.000000 -0.000000 -0.000001 -0.000000 -0.000000 -39.461582 -4.622539 -11.890253 31.446088 -5.373479 -0.409396 -0.816436 -0.674130 11.651556 -0.000000 0.000001 -0.000000 -0.000000 0.000001 -0.000000 -0.000000 0.000002 0.000002 7.480796 0.745232 -0.559153 14.685574 1.320522 -1.048189 14.685106 1.331170 -1.043957 -15.609313 -0.116949 1.286423 -8.149939 1.511392 2.036646 0.000000 -0.000000 -0.000000 0.000000 -0.000000 -0.000000 0.000000 -0.000000 -0.000000 0.828973 -6.184608 1.595529 -18.375010 9.972059 -64.810900 0.000014 -46.083153 0.000015 -9.465453 -5.617676 -21.212114 11.976884 -7.237088 -2.819925 6.866842 48.975861 3.172562 -0.000002 -0.000001 0.000001 0.262214 -1.885690 15.831764 6.353404 6.861024 -85.590419 0.000002 -0.000001 -0.000005 0.262747 -1.887539 15.847746 6.355336 6.861166 -85.606620 0.000002 -0.000001 0.000004 0.262214 -1.885683 15.831774 6.353389 6.861021 -85.590432 -0.000001 0.000001 -0.000000 -0.861038 2.009972 16.343400 6.358316 2.775167 -85.648878 -0.000000 -0.000000 0.000003 -0.000000 0.000001 -0.000003 1.042996 -0.601339 5.758572 13.088190 22.574458 35.860914 -0.000017 55.797444 0.000003 -8.068882 16.435704 10.277530 20.553622 8.878542 2.371952 26.018936 -43.422012 -4.727433 0.000000 0.000001 -0.000001 0.428450 2.407402 -20.180378 4.902378 -6.641620 72.836058 0.000003 0.000003 0.000006 0.428455 2.407402 -20.180378 4.902373 -6.641617 72.836058 0.000003 0.000000 -0.000000 0.428448 2.407392 -20.180376 4.902362 -6.641610 72.836079 -0.000001 -0.000000 -0.000001 0.428445 2.407390 -20.180380 4.902373 -6.641627 72.836044 -0.000001 0.000000 0.000004 0.000000 -0.000000 -0.000000 0.000001 -0.000000 -0.000000 0.000001 -0.000000 -0.000000 0.000001 -0.000000 -0.000000 0.000001 -0.000000 -0.000000 0.000001 -0.000000 -0.000000 0.000003 -0.000000 -0.000000 0.000001 -0.000000 -0.000000 0.000001 -0.000000 -0.000000 0.000003 -0.000000 -0.000000 0.000004 0.000000 -0.000000 0.000004 0.000000 -0.000000 0.000000 -0.000000 -0.000000 
1.502515 149.099579 -2.174858 12.646245 -4.050920 -0.176161 -0.000000 0.000000 0.000000 -36.195597 5.333663 13.750758 34.642200 3.632001 2.908279 -9.549317 1.063366 -8.086484 -0.000000 0.000001 0.000000 -0.000000 0.000001 0.000000 -0.000000 0.000000 0.000001 -39.343338 -4.618466 -11.832624 31.418010 -5.363486 -0.466519 -0.996293 -0.701158 11.788038 0.000000 0.000001 -0.000000 0.000000 0.000001 -0.000000 -0.000000 0.000002 0.000001 7.491872 0.757198 -0.542417 14.711966 1.321155 -1.097494 14.711188 1.333701 -1.093539 -15.702689 -0.184378 1.486723 -8.085129 1.502215 1.949935 -0.000001 0.000000 -0.000000 -0.000001 0.000000 -0.000000 -0.000001 0.000000 -0.000000 0.845158 -6.274475 2.072632 -18.389912 9.974829 -64.988383 0.000006 -45.782133 0.000004 -9.234230 -6.579938 -21.518161 11.976883 -7.237087 -2.819923 6.810789 48.116992 3.136235 -0.000001 0.000000 0.000001 0.258419 -1.872232 15.715830 6.012557 6.826416 -82.730694 -0.000002 -0.000001 -0.000004 0.258939 -1.874095 15.731818 6.014480 6.826651 -82.746888 0.000001 -0.000001 -0.000005 0.258416 -1.872234 15.715823 6.012548 6.826415 -82.730673 -0.000000 0.000001 -0.000002 -0.856959 2.025686 16.227756 6.019469 2.740972 -82.813435 0.000000 0.000002 0.000000 -0.000001 0.000001 -0.000000 1.017535 -0.751742 5.935261 13.231952 22.680085 35.704022 0.000013 55.572352 -0.000039 -8.261923 17.244010 10.080761 19.454474 9.154075 2.476112 26.001612 -42.532527 -4.661177 -0.000000 0.000000 0.000000 0.428456 2.407388 -20.180392 4.698834 -6.575751 71.067777 -0.000003 -0.000000 0.000002 0.428456 2.407386 -20.180397 4.698839 -6.575742 71.067777 0.000001 -0.000001 0.000003 0.428458 2.407383 -20.180390 4.698844 -6.575758 71.067770 0.000001 0.000002 0.000001 0.428445 2.407375 -20.180397 4.698852 -6.575756 71.067777 -0.000002 -0.000000 -0.000001 -0.000001 -0.000000 -0.000001 0.000004 0.000000 -0.000000 0.000004 0.000000 -0.000000 0.000004 0.000000 -0.000000 0.000004 0.000000 -0.000000 0.000004 0.000000 0.000000 0.000004 -0.000000 -0.000000 0.000004 0.000000 -0.000000 0.000004 0.000000 0.000000 0.000004 -0.000000 -0.000000 0.000000 -0.000000 -0.000000 0.000000 -0.000000 -0.000000 -0.000000 0.000000 0.000000 
1.522150 149.083511 -2.116728 12.742387 -4.118874 -0.205956 -0.000000 -0.000000 -0.000000 -36.177142 5.341695 13.801353 34.720392 3.658860 2.903808 -9.997502 1.105588 -8.162453 -0.000000 -0.000001 -0.000000 -0.000000 -0.000001 0.000000 -0.000000 0.000001 0.000002 -39.326481 -4.571882 -11.771386 31.464960 -5.428124 -0.533625 -1.353568 -0.768313 12.235162 -0.000000 0.000002 -0.000000 -0.000000 0.000002 -0.000000 -0.000000 0.000002 0.000000 7.497033 0.777954 -0.597700 14.737378 1.322170 -1.280522 14.736512 1.339526 -1.271846 -15.886272 -0.372683 2.132394 -8.024169 1.559465 1.730368 -0.000000 0.000000 -0.000000 -0.000000 0.000000 -0.000000 -0.000000 0.000000 -0.000000 0.909396 -6.637290 3.380052 -18.084543 10.551585 -65.625489 -0.000000 -45.670265 -0.000002 -9.228983 -7.299024 -21.878073 11.976886 -7.237088 -2.819924 6.752636 47.224071 3.097747 -0.000001 -0.000001 0.000001 0.255867 -1.863159 15.637611 5.660366 6.772547 -79.756652 -0.000001 -0.000001 -0.000005 0.256394 -1.865016 15.653617 5.662279 6.772883 -79.772832 -0.000000 -0.000000 -0.000005 0.255867 -1.863148 15.637607 5.660356 6.772543 -79.756659 -0.000002 -0.000000 -0.000000 -0.854203 2.036281 16.149711 5.669279 2.687693 -79.864514 -0.000002 0.000002 -0.000000 -0.000000 -0.000000 -0.000002 0.978299 -1.040732 6.621313 13.545500 22.780407 35.066184 -0.000022 55.637270 0.000010 -7.942357 17.122582 10.209590 18.311116 9.439847 2.582181 25.982395 -41.607771 -4.592844 0.000000 -0.000000 0.000000 0.428466 2.407398 -20.180366 4.489476 -6.500662 69.229308 -0.000003 0.000002 0.000005 0.428474 2.407397 -20.180369 4.489474 -6.500650 69.229315 0.000002 -0.000001 -0.000000 0.428467 2.407396 -20.180363 4.489467 -6.500659 69.229302 0.000000 -0.000000 0.000002 0.428459 2.407392 -20.180371 4.489482 -6.500666 69.229302 -0.000001 0.000001 0.000002 0.000001 0.000000 -0.000000 0.000000 0.000000 -0.000000 0.000000 0.000000 -0.000000 0.000000 0.000000 -0.000000 0.000000 0.000000 -0.000000 0.000000 0.000000 0.000000 0.000004 0.000000 0.000000 0.000000 0.000000 -0.000000 0.000000 0.000000 0.000000 0.000004 0.000000 0.000000 0.000005 0.000000 0.000000 0.000005 0.000000 0.000000 -0.000000 -0.000000 -0.000000 
